<?xml version="1.0" standalone="no"?>
<!DOCTYPE svg PUBLIC "-//W3C//DTD SVG 1.1//EN" "http://www.w3.org/Graphics/SVG/1.1/DTD/svg11.dtd">
<!--Generator: Xara Designer (www.xara.com), SVG filter version: 6.0.0.4-->
<svg stroke-width="0.501" stroke-linejoin="bevel" fill-rule="evenodd" xmlns:xlink="http://www.w3.org/1999/xlink" xmlns="http://www.w3.org/2000/svg" version="1.1" overflow="visible" width="37.5pt" height="24pt" viewBox="0 0 37.5 24">
 <defs>
	</defs>
 <g id="Document" fill="none" stroke="black" font-family="Times New Roman" font-size="16" transform="scale(1 -1)">
  <g id="Spread" transform="translate(0 -24)">
   <g id="Page background">
    <path d="M 0.001,23.999 L 0.001,0 L 37.498,0 L 37.498,23.999 L 0.001,23.999 Z" stroke-linejoin="bevel" stroke="none" stroke-width="0" marker-start="none" marker-end="none" stroke-miterlimit="79.8403193612775"/>
   </g>
   <g id="MouseOff">
    <g id="Group" stroke-linejoin="miter" stroke="none" fill="#ffffff">
     <g id="Group_1">
      <path d="M 0,20.716 L 0,3.285 C 0,1.473 1.472,0.001 3.284,0.001 L 34.215,0.001 C 36.027,0.001 37.499,1.473 37.499,3.285 L 37.499,20.716 C 37.499,22.528 36.027,24 34.215,24 L 3.284,24 C 1.472,24 0,22.528 0,20.716 Z" marker-start="none" marker-end="none"/>
     </g>
    </g>
    <g id="Group_2" stroke="none">
     <g id="Group_3">
      <g id="Group_4">
       <g id="Group_5">
        <g id="Group_6">
         <path d="M 19.255,13.714 C 19.238,12.391 20.435,11.653 21.336,11.214 C 22.261,10.763 22.572,10.474 22.569,10.071 C 22.562,9.455 21.83,9.183 21.146,9.172 C 19.952,9.154 19.257,9.494 18.705,9.753 L 18.274,7.739 C 18.829,7.484 19.855,7.261 20.918,7.252 C 23.414,7.252 25.048,8.484 25.057,10.394 C 25.066,12.82 21.703,12.954 21.725,14.038 C 21.734,14.367 22.047,14.717 22.734,14.806 C 23.075,14.851 24.013,14.886 25.078,14.396 L 25.496,16.344 C 24.924,16.552 24.187,16.752 23.271,16.752 C 20.922,16.752 19.269,15.503 19.255,13.715 M 29.511,16.584 C 29.055,16.584 28.671,16.318 28.499,15.91 L 24.933,7.395 L 27.427,7.395 L 27.924,8.767 L 30.973,8.767 L 31.261,7.395 L 33.46,7.395 L 31.541,16.584 L 29.511,16.584 M 29.86,14.102 L 30.58,10.65 L 28.608,10.65 L 29.86,14.102 M 16.231,16.584 L 14.264,7.395 L 16.642,7.395 L 18.607,16.584 L 16.231,16.584 M 12.714,16.584 L 10.24,10.33 L 9.238,15.648 C 9.121,16.241 8.657,16.584 8.141,16.584 L 4.097,16.584 L 4.04,16.317 C 4.87,16.136 5.814,15.846 6.385,15.535 C 6.736,15.345 6.835,15.179 6.951,14.728 L 8.846,7.395 L 11.358,7.395 L 15.21,16.584 L 12.714,16.584"/>
        </g>
       </g>
      </g>
     </g>
     <g id="Group_7" fill-rule="nonzero" stroke-linejoin="miter">
      <g id="Group_8">
       <g id="Group_9">
        <g id="Group_10" stroke-width="0.53" fill="#0099df" stroke-miterlimit="79.8403193612775">
         <path d="M 31.986,8.987 L 31.986,9.31 L 31.902,9.31 L 31.804,9.088 L 31.707,9.31 L 31.622,9.31 L 31.622,8.987 L 31.683,8.987 L 31.683,9.231 L 31.774,9.021 L 31.836,9.021 L 31.928,9.232 L 31.928,8.987 L 31.986,8.987 Z M 31.452,8.987 L 31.452,9.255 L 31.56,9.255 L 31.56,9.31 L 31.283,9.31 L 31.283,9.255 L 31.392,9.255 L 31.392,8.987 L 31.452,8.987 Z" marker-start="none" marker-end="none"/>
        </g>
        <g id="Group_11">
         <path d="M 22.403,7.599 L 15.106,7.599 L 15.106,20.712 L 22.403,20.712 L 22.403,7.599 Z" fill="#6c6bbd" stroke-width="0.423" marker-start="none" marker-end="none" stroke-miterlimit="79.8403193612775"/>
         <g id="Group_12" stroke-width="0.53" fill="#d32011" stroke-miterlimit="79.8403193612775">
          <path d="M 15.569,14.155 C 15.569,16.815 16.814,19.184 18.753,20.712 C 17.336,21.828 15.546,22.495 13.601,22.495 C 8.994,22.495 5.261,18.761 5.261,14.155 C 5.261,9.549 8.994,5.815 13.601,5.815 C 15.546,5.815 17.336,6.482 18.753,7.599 C 16.814,9.125 15.569,11.495 15.569,14.155"/>
         </g>
         <g id="Group_13" stroke-width="0.53" fill="#0099df" stroke-miterlimit="79.8403193612775">
          <path d="M 32.247,14.155 C 32.247,9.549 28.514,5.815 23.907,5.815 C 21.962,5.815 20.172,6.482 18.753,7.599 C 20.694,9.125 21.939,11.495 21.939,14.155 C 21.939,16.815 20.694,19.184 18.753,20.712 C 20.172,21.828 21.962,22.495 23.907,22.495 C 28.514,22.495 32.247,18.761 32.247,14.155"/>
         </g>
        </g>
       </g>
       <g id="Group_14" stroke-width="0.53" stroke-miterlimit="79.8403193612775">
        <g id="Group_15" fill="#110f0d">
         <path d="M 24.871,3.893 C 24.969,3.893 25.108,3.874 25.214,3.833 L 25.066,3.378 C 24.964,3.421 24.862,3.434 24.765,3.434 C 24.45,3.434 24.293,3.231 24.293,2.865 L 24.293,1.623 L 23.811,1.623 L 23.811,3.837 L 24.288,3.837 L 24.288,3.568 C 24.413,3.763 24.594,3.893 24.871,3.893 M 23.091,3.397 L 22.304,3.397 L 22.304,2.397 C 22.304,2.174 22.381,2.026 22.624,2.026 C 22.748,2.026 22.906,2.067 23.049,2.151 L 23.188,1.739 C 23.035,1.633 22.795,1.567 22.586,1.567 C 22.016,1.567 21.817,1.873 21.817,2.388 L 21.817,3.397 L 21.368,3.397 L 21.368,3.837 L 21.817,3.837 L 21.817,4.509 L 22.304,4.509 L 22.304,3.837 L 23.091,3.837 L 23.091,3.397 Z M 16.925,2.925 C 16.977,3.245 17.17,3.462 17.513,3.462 C 17.824,3.462 18.023,3.267 18.074,2.925 L 16.925,2.925 Z M 18.575,2.731 C 18.569,3.421 18.144,3.893 17.523,3.893 C 16.874,3.893 16.42,3.421 16.42,2.731 C 16.42,2.027 16.893,1.568 17.556,1.568 C 17.889,1.568 18.194,1.651 18.463,1.878 L 18.226,2.234 C 18.041,2.086 17.805,2.003 17.583,2.003 C 17.273,2.003 16.99,2.147 16.921,2.545 L 18.565,2.545 C 18.569,2.606 18.575,2.665 18.575,2.731 M 20.691,3.272 C 20.557,3.356 20.284,3.462 20.002,3.462 C 19.738,3.462 19.58,3.365 19.58,3.203 C 19.58,3.055 19.746,3.013 19.955,2.985 L 20.181,2.953 C 20.663,2.883 20.956,2.679 20.956,2.29 C 20.956,1.868 20.585,1.567 19.945,1.567 C 19.584,1.567 19.25,1.661 18.986,1.855 L 19.213,2.231 C 19.375,2.105 19.618,1.999 19.95,1.999 C 20.279,1.999 20.455,2.096 20.455,2.267 C 20.455,2.392 20.33,2.461 20.066,2.498 L 19.839,2.531 C 19.343,2.601 19.075,2.822 19.075,3.184 C 19.075,3.624 19.436,3.893 19.997,3.893 C 20.349,3.893 20.668,3.814 20.9,3.661 L 20.691,3.272 Z M 26.632,3.435 C 26.534,3.435 26.441,3.418 26.356,3.383 C 26.271,3.348 26.197,3.299 26.136,3.237 C 26.073,3.175 26.025,3.1 25.989,3.012 C 25.954,2.924 25.936,2.828 25.936,2.723 C 25.936,2.617 25.954,2.522 25.989,2.434 C 26.025,2.346 26.073,2.271 26.136,2.209 C 26.197,2.146 26.271,2.097 26.356,2.062 C 26.441,2.027 26.534,2.01 26.632,2.01 C 26.731,2.01 26.824,2.027 26.908,2.062 C 26.994,2.097 27.068,2.146 27.13,2.209 C 27.194,2.271 27.242,2.346 27.278,2.434 C 27.313,2.522 27.331,2.617 27.331,2.723 C 27.331,2.828 27.313,2.924 27.278,3.012 C 27.242,3.1 27.194,3.175 27.13,3.237 C 27.068,3.299 26.994,3.348 26.908,3.383 C 26.824,3.418 26.731,3.435 26.632,3.435 M 26.632,3.893 C 26.804,3.893 26.963,3.863 27.109,3.804 C 27.256,3.744 27.382,3.662 27.49,3.557 C 27.596,3.453 27.68,3.33 27.74,3.187 C 27.8,3.044 27.831,2.89 27.831,2.723 C 27.831,2.556 27.8,2.401 27.74,2.258 C 27.68,2.116 27.596,1.992 27.49,1.888 C 27.382,1.783 27.256,1.701 27.109,1.642 C 26.963,1.582 26.804,1.553 26.632,1.553 C 26.46,1.553 26.301,1.582 26.155,1.642 C 26.009,1.701 25.883,1.783 25.777,1.888 C 25.671,1.992 25.588,2.116 25.528,2.258 C 25.467,2.401 25.436,2.556 25.436,2.723 C 25.436,2.89 25.467,3.044 25.528,3.187 C 25.588,3.33 25.671,3.453 25.777,3.557 C 25.883,3.662 26.009,3.744 26.155,3.804 C 26.301,3.863 26.46,3.893 26.632,3.893 M 14.11,2.731 C 14.11,3.12 14.366,3.439 14.783,3.439 C 15.18,3.439 15.45,3.133 15.45,2.731 C 15.45,2.327 15.18,2.022 14.783,2.022 C 14.366,2.022 14.11,2.342 14.11,2.731 M 15.903,2.731 L 15.903,3.837 L 15.422,3.837 L 15.422,3.568 C 15.268,3.768 15.037,3.893 14.723,3.893 C 14.102,3.893 13.615,3.406 13.615,2.731 C 13.615,2.054 14.102,1.567 14.723,1.567 C 15.037,1.567 15.268,1.693 15.422,1.892 L 15.422,1.623 L 15.903,1.623 L 15.903,2.731 Z M 13.189,1.623 L 13.189,3.013 C 13.189,3.536 12.855,3.888 12.318,3.893 C 12.036,3.898 11.744,3.81 11.54,3.499 C 11.388,3.745 11.146,3.893 10.808,3.893 C 10.572,3.893 10.341,3.823 10.159,3.565 L 10.159,3.837 L 9.677,3.837 L 9.677,1.623 L 10.164,1.623 L 10.164,2.851 C 10.164,3.235 10.377,3.439 10.706,3.439 C 11.026,3.439 11.188,3.231 11.188,2.855 L 11.188,1.623 L 11.674,1.623 L 11.674,2.851 C 11.674,3.235 11.897,3.439 12.216,3.439 C 12.545,3.439 12.703,3.231 12.703,2.855 L 12.703,1.623 L 13.189,1.623 Z" marker-start="none" marker-end="none"/>
        </g>
        <g id="Group_16" fill="#242021">
         <path d="M 28.372,1.789 L 28.372,1.735 L 28.423,1.735 C 28.434,1.735 28.444,1.738 28.45,1.743 C 28.456,1.746 28.461,1.754 28.461,1.762 C 28.461,1.772 28.456,1.778 28.45,1.783 C 28.444,1.788 28.434,1.789 28.423,1.789 L 28.372,1.789 Z M 28.424,1.828 C 28.449,1.828 28.47,1.822 28.483,1.81 C 28.498,1.799 28.505,1.783 28.505,1.762 C 28.505,1.746 28.5,1.732 28.488,1.721 C 28.477,1.711 28.461,1.703 28.44,1.701 L 28.507,1.624 L 28.455,1.624 L 28.393,1.7 L 28.372,1.7 L 28.372,1.624 L 28.329,1.624 L 28.329,1.828 L 28.424,1.828 Z M 28.411,1.554 C 28.434,1.554 28.456,1.558 28.476,1.567 C 28.497,1.576 28.515,1.588 28.53,1.603 C 28.546,1.619 28.558,1.637 28.567,1.658 C 28.575,1.679 28.58,1.701 28.58,1.725 C 28.58,1.749 28.575,1.771 28.567,1.792 C 28.558,1.812 28.546,1.831 28.53,1.846 C 28.515,1.862 28.497,1.874 28.476,1.883 C 28.456,1.892 28.434,1.895 28.411,1.895 C 28.386,1.895 28.363,1.892 28.343,1.883 C 28.322,1.874 28.303,1.862 28.287,1.846 C 28.272,1.831 28.26,1.812 28.252,1.792 C 28.242,1.771 28.239,1.749 28.239,1.725 C 28.239,1.701 28.242,1.679 28.252,1.658 C 28.26,1.637 28.272,1.619 28.287,1.603 C 28.303,1.588 28.322,1.576 28.343,1.567 C 28.363,1.558 28.386,1.554 28.411,1.554 M 28.411,1.945 C 28.441,1.945 28.47,1.939 28.497,1.927 C 28.525,1.916 28.547,1.9 28.568,1.881 C 28.589,1.861 28.604,1.837 28.616,1.81 C 28.628,1.784 28.634,1.756 28.634,1.725 C 28.634,1.694 28.628,1.666 28.616,1.64 C 28.604,1.613 28.589,1.59 28.568,1.57 C 28.547,1.55 28.525,1.534 28.497,1.522 C 28.47,1.511 28.441,1.505 28.411,1.505 C 28.378,1.505 28.348,1.511 28.322,1.522 C 28.294,1.534 28.27,1.55 28.25,1.57 C 28.23,1.59 28.213,1.613 28.202,1.64 C 28.191,1.666 28.184,1.694 28.184,1.725 C 28.184,1.756 28.191,1.784 28.202,1.81 C 28.213,1.837 28.23,1.861 28.25,1.881 C 28.27,1.9 28.294,1.916 28.322,1.927 C 28.348,1.939 28.378,1.945 28.411,1.945"/>
        </g>
       </g>
      </g>
     </g>
    </g>
   </g>
  </g>
 </g>
</svg>
