<?xml version="1.0" standalone="no"?>
<!DOCTYPE svg PUBLIC "-//W3C//DTD SVG 1.1//EN" "http://www.w3.org/Graphics/SVG/1.1/DTD/svg11.dtd">
<!--Generator: Xara Designer (www.xara.com), SVG filter version: 6.0.0.4-->
<svg stroke-width="0.501" stroke-linejoin="bevel" fill-rule="evenodd" xmlns:xlink="http://www.w3.org/1999/xlink" xmlns="http://www.w3.org/2000/svg" version="1.1" overflow="visible" width="37.5pt" height="24pt" viewBox="0 0 37.5 24">
 <defs>
	</defs>
 <g id="Document" fill="none" stroke="black" font-family="Times New Roman" font-size="16" transform="scale(1 -1)">
  <g id="Spread" transform="translate(0 -24)">
   <g id="Page background">
    <path d="M 0.001,23.999 L 0.001,0 L 37.498,0 L 37.498,23.999 L 0.001,23.999 Z" stroke-linejoin="bevel" stroke="none" stroke-width="0" marker-start="none" marker-end="none" stroke-miterlimit="79.8403193612775"/>
   </g>
   <g id="MouseOff">
    <g id="Group" stroke-linejoin="miter" stroke="none" fill="#ffffff">
     <g id="Group_1">
      <path d="M 0,20.716 L 0,3.285 C 0,1.473 1.472,0.001 3.284,0.001 L 34.215,0.001 C 36.027,0.001 37.499,1.473 37.499,3.285 L 37.499,20.716 C 37.499,22.528 36.027,24 34.215,24 L 3.284,24 C 1.472,24 0,22.528 0,20.716 Z" marker-start="none" marker-end="none"/>
     </g>
    </g>
    <g id="Group_2" fill-rule="evenodd" stroke-linejoin="miter" stroke="none" stroke-width="0.233" stroke-miterlimit="79.8403193612775">
     <g id="Group_3">
      <g id="Group_4">
       <g id="Group_5" fill="#000000">
        <path d="M 10.128,1.528 L 10.128,2.925 C 10.128,3.46 9.803,3.809 9.244,3.809 C 8.965,3.809 8.662,3.716 8.453,3.413 C 8.29,3.669 8.057,3.809 7.708,3.809 C 7.475,3.809 7.243,3.739 7.057,3.483 L 7.057,3.762 L 6.568,3.762 L 6.568,1.528 L 7.057,1.528 L 7.057,2.762 C 7.057,3.157 7.266,3.343 7.592,3.343 C 7.917,3.343 8.08,3.134 8.08,2.762 L 8.08,1.528 L 8.569,1.528 L 8.569,2.762 C 8.569,3.157 8.802,3.343 9.105,3.343 C 9.43,3.343 9.593,3.134 9.593,2.762 L 9.593,1.528 L 10.128,1.528 Z M 17.366,3.762 L 16.574,3.762 L 16.574,4.437 L 16.086,4.437 L 16.086,3.762 L 15.643,3.762 L 15.643,3.32 L 16.086,3.32 L 16.086,2.296 C 16.086,1.784 16.295,1.482 16.853,1.482 C 17.063,1.482 17.296,1.551 17.459,1.644 L 17.319,2.063 C 17.18,1.97 17.017,1.947 16.9,1.947 C 16.668,1.947 16.574,2.087 16.574,2.32 L 16.574,3.32 L 17.366,3.32 L 17.366,3.762 Z M 21.508,3.809 C 21.229,3.809 21.043,3.669 20.927,3.483 L 20.927,3.762 L 20.438,3.762 L 20.438,1.528 L 20.927,1.528 L 20.927,2.785 C 20.927,3.157 21.089,3.367 21.391,3.367 C 21.484,3.367 21.601,3.343 21.694,3.32 L 21.834,3.785 C 21.741,3.809 21.601,3.809 21.508,3.809 L 21.508,3.809 Z M 15.248,3.576 C 15.015,3.739 14.689,3.809 14.341,3.809 C 13.782,3.809 13.41,3.53 13.41,3.087 C 13.41,2.715 13.689,2.505 14.177,2.436 L 14.41,2.412 C 14.666,2.366 14.806,2.296 14.806,2.18 C 14.806,2.017 14.62,1.9 14.294,1.9 C 13.968,1.9 13.712,2.017 13.549,2.133 L 13.317,1.761 C 13.572,1.575 13.922,1.482 14.271,1.482 C 14.922,1.482 15.294,1.784 15.294,2.203 C 15.294,2.599 14.992,2.808 14.526,2.878 L 14.294,2.901 C 14.084,2.925 13.922,2.971 13.922,3.111 C 13.922,3.274 14.084,3.367 14.341,3.367 C 14.62,3.367 14.899,3.25 15.038,3.18 L 15.248,3.576 Z M 28.234,3.809 C 27.954,3.809 27.768,3.669 27.652,3.483 L 27.652,3.762 L 27.163,3.762 L 27.163,1.528 L 27.652,1.528 L 27.652,2.785 C 27.652,3.157 27.814,3.367 28.117,3.367 C 28.21,3.367 28.326,3.343 28.419,3.32 L 28.559,3.785 C 28.466,3.809 28.326,3.809 28.234,3.809 L 28.234,3.809 Z M 21.996,2.645 C 21.996,1.97 22.462,1.482 23.183,1.482 C 23.509,1.482 23.742,1.551 23.975,1.738 L 23.742,2.133 C 23.556,1.994 23.37,1.924 23.16,1.924 C 22.765,1.924 22.485,2.203 22.485,2.645 C 22.485,3.064 22.765,3.343 23.16,3.367 C 23.37,3.367 23.556,3.297 23.742,3.157 L 23.975,3.553 C 23.742,3.739 23.509,3.809 23.183,3.809 C 22.462,3.809 21.996,3.32 21.996,2.645 L 21.996,2.645 Z M 26.511,2.645 L 26.511,3.762 L 26.022,3.762 L 26.022,3.483 C 25.86,3.692 25.627,3.809 25.324,3.809 C 24.696,3.809 24.207,3.32 24.207,2.645 C 24.207,1.97 24.696,1.482 25.324,1.482 C 25.65,1.482 25.883,1.598 26.022,1.807 L 26.022,1.528 L 26.511,1.528 L 26.511,2.645 Z M 24.719,2.645 C 24.719,3.041 24.976,3.367 25.394,3.367 C 25.79,3.367 26.069,3.064 26.069,2.645 C 26.069,2.249 25.79,1.924 25.394,1.924 C 24.976,1.947 24.719,2.249 24.719,2.645 L 24.719,2.645 Z M 18.879,3.809 C 18.227,3.809 17.761,3.343 17.761,2.645 C 17.761,1.947 18.227,1.482 18.901,1.482 C 19.227,1.482 19.553,1.575 19.809,1.784 L 19.576,2.133 C 19.39,1.994 19.158,1.9 18.925,1.9 C 18.622,1.9 18.32,2.04 18.25,2.436 L 19.902,2.436 C 19.902,2.505 19.902,2.552 19.902,2.622 C 19.925,3.343 19.507,3.809 18.879,3.809 L 18.879,3.809 Z M 18.879,3.39 C 19.181,3.39 19.39,3.204 19.437,2.854 L 18.274,2.854 C 18.32,3.157 18.529,3.39 18.879,3.39 L 18.879,3.39 Z M 31.003,2.645 L 31.003,4.646 L 30.514,4.646 L 30.514,3.483 C 30.351,3.692 30.118,3.809 29.816,3.809 C 29.187,3.809 28.698,3.32 28.698,2.645 C 28.698,1.97 29.187,1.482 29.816,1.482 C 30.142,1.482 30.374,1.598 30.514,1.807 L 30.514,1.528 L 31.003,1.528 L 31.003,2.645 Z M 29.211,2.645 C 29.211,3.041 29.467,3.367 29.885,3.367 C 30.281,3.367 30.56,3.064 30.56,2.645 C 30.56,2.249 30.281,1.924 29.885,1.924 C 29.467,1.947 29.211,2.249 29.211,2.645 L 29.211,2.645 Z M 12.874,2.645 L 12.874,3.762 L 12.385,3.762 L 12.385,3.483 C 12.223,3.692 11.99,3.809 11.687,3.809 C 11.059,3.809 10.57,3.32 10.57,2.645 C 10.57,1.97 11.059,1.482 11.687,1.482 C 12.013,1.482 12.246,1.598 12.385,1.807 L 12.385,1.528 L 12.874,1.528 L 12.874,2.645 Z M 11.059,2.645 C 11.059,3.041 11.315,3.367 11.734,3.367 C 12.13,3.367 12.409,3.064 12.409,2.645 C 12.409,2.249 12.13,1.924 11.734,1.924 C 11.315,1.947 11.059,2.249 11.059,2.645 Z" marker-start="none" marker-end="none"/>
       </g>
       <g id="Group_6">
        <path d="M 22.414,7.555 L 15.084,7.555 L 15.084,20.727 L 22.414,20.727 L 22.414,7.555 Z" fill="#ff5f00" marker-start="none" marker-end="none"/>
        <path d="M 15.551,14.141 C 15.551,16.817 16.807,19.191 18.738,20.727 C 17.319,21.844 15.527,22.519 13.572,22.519 C 8.941,22.519 5.195,18.772 5.195,14.141 C 5.195,9.51 8.941,5.764 13.572,5.764 C 15.527,5.764 17.319,6.438 18.738,7.555 C 16.807,9.068 15.551,11.465 15.551,14.141 Z" fill="#eb001b" marker-start="none" marker-end="none"/>
        <path d="M 32.306,14.141 C 32.306,9.51 28.559,5.764 23.928,5.764 C 21.973,5.764 20.181,6.438 18.762,7.555 C 20.717,9.091 21.95,11.465 21.95,14.141 C 21.95,16.817 20.694,19.191 18.762,20.727 C 20.181,21.844 21.973,22.519 23.928,22.519 C 28.559,22.519 32.306,18.749 32.306,14.141 Z" fill="#f79e1b" marker-start="none" marker-end="none"/>
       </g>
      </g>
     </g>
    </g>
   </g>
  </g>
 </g>
</svg>
