<?xml version="1.0" standalone="no"?>
<!DOCTYPE svg PUBLIC "-//W3C//DTD SVG 1.1//EN" "http://www.w3.org/Graphics/SVG/1.1/DTD/svg11.dtd">
<!--Generator: Xara Designer (www.xara.com), SVG filter version: 6.0.0.4-->
<svg stroke-width="0.501" stroke-linejoin="bevel" fill-rule="evenodd" xmlns:xlink="http://www.w3.org/1999/xlink" xmlns="http://www.w3.org/2000/svg" version="1.1" overflow="visible" width="37.5pt" height="24pt" viewBox="0 0 37.5 24">
 <defs>
  <linearGradient id="LinearGradient" gradientUnits="userSpaceOnUse" x1="0" y1="0" x2="26.481" y2="0" gradientTransform="translate(6.674 7.534) rotate(20.2182)">
   <stop offset="0" stop-color="#222357"/>
   <stop offset="1" stop-color="#254aa5"/>
  </linearGradient>
 </defs>
 <g id="Document" fill="none" stroke="black" font-family="Times New Roman" font-size="16" transform="scale(1 -1)">
  <g id="Spread" transform="translate(0 -24)">
   <g id="Page background">
    <path d="M 0.001,23.999 L 0.001,0 L 37.498,0 L 37.498,23.999 L 0.001,23.999 Z" stroke-linejoin="bevel" stroke="none" stroke-width="0" marker-start="none" marker-end="none" stroke-miterlimit="79.8403193612775"/>
   </g>
   <g id="MouseOff">
    <g id="Group" stroke="none">
     <g id="Group_1" stroke-linejoin="miter" fill="#ffffff">
      <path d="M 0,20.716 L 0,3.285 C 0,1.473 1.472,0.001 3.284,0.001 L 34.215,0.001 C 36.027,0.001 37.499,1.473 37.499,3.285 L 37.499,20.716 C 37.499,22.528 36.027,24 34.215,24 L 3.284,24 C 1.472,24 0,22.528 0,20.716 Z" marker-start="none" marker-end="none"/>
     </g>
     <g id="Group_2">
      <g id="Group_3">
       <g id="ClipView">
        <path d="M 19.252,13.719 C 19.236,12.392 20.434,11.653 21.337,11.213 C 22.265,10.761 22.577,10.472 22.573,10.067 C 22.566,9.45 21.834,9.177 21.147,9.166 C 19.95,9.148 19.253,9.49 18.7,9.748 L 18.269,7.729 C 18.824,7.475 19.853,7.251 20.919,7.242 C 23.42,7.242 25.058,8.477 25.067,10.392 C 25.076,12.822 21.705,12.956 21.728,14.044 C 21.736,14.373 22.05,14.724 22.738,14.814 C 23.08,14.859 24.021,14.893 25.088,14.402 L 25.506,16.354 C 24.934,16.563 24.194,16.764 23.277,16.764 C 20.922,16.764 19.266,15.511 19.252,13.719 M 29.531,16.595 C 29.074,16.595 28.689,16.328 28.517,15.919 L 24.943,7.385 L 27.443,7.385 L 27.941,8.76 L 30.997,8.76 L 31.286,7.385 L 33.489,7.385 L 31.566,16.595 L 29.531,16.595 M 29.88,14.107 L 30.602,10.648 L 28.626,10.648 L 29.88,14.107 M 16.22,16.595 L 14.249,7.385 L 16.633,7.385 L 18.602,16.595 L 16.22,16.595 M 12.695,16.595 L 10.216,10.326 L 9.212,15.656 C 9.094,16.252 8.63,16.595 8.113,16.595 L 4.059,16.595 L 4.003,16.328 C 4.835,16.147 5.78,15.856 6.354,15.544 C 6.703,15.354 6.805,15.188 6.919,14.735 L 8.819,7.385 L 11.337,7.385 L 15.198,16.595 L 12.695,16.595"/>
        <clipPath id="ClipPath">
         <path d="M 18.269,7.729 L 18.7,9.748 C 19.253,9.49 19.95,9.148 21.147,9.166 C 21.834,9.177 22.566,9.45 22.573,10.067 C 22.577,10.472 22.265,10.761 21.337,11.213 C 20.434,11.653 19.236,12.392 19.252,13.719 C 19.266,15.511 20.922,16.764 23.277,16.764 C 24.194,16.764 24.934,16.563 25.506,16.354 L 25.088,14.402 C 24.021,14.893 23.08,14.859 22.738,14.814 C 22.05,14.724 21.736,14.373 21.728,14.044 C 21.705,12.956 25.076,12.822 25.067,10.392 C 25.058,8.477 23.42,7.242 20.919,7.242 C 19.853,7.251 18.824,7.475 18.269,7.729 Z M 8.819,7.385 L 6.919,14.735 C 6.805,15.188 6.703,15.354 6.354,15.544 C 5.78,15.856 4.835,16.147 4.003,16.328 L 4.059,16.595 L 8.113,16.595 C 8.63,16.595 9.094,16.252 9.212,15.656 L 10.216,10.326 L 12.695,16.595 L 15.198,16.595 L 11.337,7.385 L 8.819,7.385 Z M 14.249,7.385 L 16.22,16.595 L 18.602,16.595 L 16.633,7.385 L 14.249,7.385 Z M 24.943,7.385 L 28.517,15.919 C 28.689,16.328 29.074,16.595 29.531,16.595 L 31.566,16.595 L 33.489,7.385 L 31.286,7.385 L 30.997,8.76 L 27.941,8.76 L 27.443,7.385 L 24.943,7.385 Z M 30.602,10.648 L 29.88,14.107 L 28.626,10.648 L 30.602,10.648 Z"/>
        </clipPath>
        <g clip-path="url(#ClipPath)">
         <g id="Group_4" fill-rule="nonzero" stroke-linejoin="miter" stroke-width="0.296" stroke-miterlimit="79.8403193612775" fill="url(#LinearGradient)">
          <g id="Group_5">
           <path d="M 0.915,15.627 L 29.968,26.326 L 36.577,8.378 L 7.524,-2.321"/>
          </g>
         </g>
        </g>
       </g>
      </g>
     </g>
    </g>
   </g>
  </g>
 </g>
</svg>
